<mxfile host="app.diagrams.net" modified="2024-03-12T17:06:43.652Z" agent="Mozilla/5.0 (Windows NT 10.0; Win64; x64) AppleWebKit/537.36 (KHTML, like Gecko) Chrome/122.0.0.0 Safari/537.36" version="24.0.5" etag="7b7XKSg2_MFBOeEtieap" type="github">
  <diagram name="Страница — 1" id="p0D8MYKrY1o0ZovED_6k">
    <mxGraphModel>
      <root>
        <mxCell id="0" />
        <mxCell id="1" parent="0" />
      </root>
    </mxGraphModel>
  </diagram>
</mxfile>
